<svg width="800" height="800" viewBox="0 0 800 800" fill="none" xmlns="http://www.w3.org/2000/svg">
<path opacity="0.4" d="M400 176.665V710.997C394.333 710.997 388.333 709.997 383.667 707.33L382.333 706.663C318.333 671.663 206.667 634.996 134.333 625.33L124.667 623.997C92.6667 619.997 66.6667 589.997 66.6667 557.997V155.331C66.6667 115.665 99.0001 85.6646 138.667 88.9979C208.667 94.6646 314.667 129.998 374 166.998L382.333 171.998C387.333 174.998 393.667 176.665 400 176.665Z" fill="white"/>
<path d="M733.333 155.668V558C733.333 590 707.333 620 675.333 624L664.333 625.333C591.667 635 479.667 672 415.667 707.333C411.333 710 406 711 400 711V176.668C406.333 176.668 412.667 175.001 417.667 172.001L423.333 168.334C482.667 131.001 589 95.3344 659 89.3344H661C700.667 86.001 733.333 115.668 733.333 155.668Z" fill="white"/>
<path d="M258.333 308H183.333C169.667 308 158.333 296.666 158.333 283C158.333 269.333 169.667 258 183.333 258H258.333C272 258 283.333 269.333 283.333 283C283.333 296.666 272 308 258.333 308Z" fill="white"/>
<path d="M283.333 408H183.333C169.667 408 158.333 396.667 158.333 383C158.333 369.333 169.667 358 183.333 358H283.333C297 358 308.333 369.333 308.333 383C308.333 396.667 297 408 283.333 408Z" fill="white"/>
</svg>
