<svg width="146" height="48" viewBox="0 0 146 48" fill="none" xmlns="http://www.w3.org/2000/svg">
<g clip-path="url(#clip0_4_2)">
<path d="M122 0H24C10.7452 0 0 10.7452 0 24C0 37.2548 10.7452 48 24 48H122C135.255 48 146 37.2548 146 24C146 10.7452 135.255 0 122 0Z" fill="#D1497F"/>
<path d="M57.7784 30H53.1378V16.9091H57.8168C59.1335 16.9091 60.267 17.1712 61.2173 17.6953C62.1676 18.2152 62.8984 18.9631 63.4098 19.9389C63.9254 20.9148 64.1832 22.0824 64.1832 23.4418C64.1832 24.8054 63.9254 25.9773 63.4098 26.9574C62.8984 27.9375 62.1634 28.6896 61.2045 29.2138C60.25 29.7379 59.108 30 57.7784 30ZM55.9055 27.6286H57.6634C58.4815 27.6286 59.1697 27.4837 59.728 27.1939C60.2905 26.8999 60.7124 26.446 60.9936 25.8324C61.2791 25.2145 61.4219 24.4176 61.4219 23.4418C61.4219 22.4744 61.2791 21.6839 60.9936 21.0703C60.7124 20.4567 60.2926 20.005 59.7344 19.7152C59.1761 19.4254 58.4879 19.2805 57.6697 19.2805H55.9055V27.6286ZM66.1824 30V20.1818H68.8223V21.8949H68.9245C69.1035 21.2855 69.4039 20.8253 69.8258 20.5142C70.2477 20.1989 70.7335 20.0412 71.2832 20.0412C71.4196 20.0412 71.5666 20.0497 71.7243 20.0668C71.8819 20.0838 72.0204 20.1072 72.1397 20.1371V22.5533C72.0119 22.5149 71.8351 22.4808 71.6092 22.451C71.3833 22.4212 71.1767 22.4062 70.9892 22.4062C70.5886 22.4062 70.2306 22.4936 69.9153 22.6683C69.6042 22.8388 69.3571 23.0774 69.1738 23.3842C68.9949 23.6911 68.9054 24.0447 68.9054 24.4453V30H66.1824ZM73.5476 30V20.1818H76.2706V30H73.5476ZM74.9155 18.9162C74.5107 18.9162 74.1634 18.782 73.8736 18.5135C73.5881 18.2408 73.4453 17.9148 73.4453 17.5355C73.4453 17.1605 73.5881 16.8388 73.8736 16.5703C74.1634 16.2976 74.5107 16.1612 74.9155 16.1612C75.3203 16.1612 75.6655 16.2976 75.951 16.5703C76.2408 16.8388 76.3857 17.1605 76.3857 17.5355C76.3857 17.9148 76.2408 18.2408 75.951 18.5135C75.6655 18.782 75.3203 18.9162 74.9155 18.9162ZM78.503 30V16.9091H81.226V21.831H81.3091C81.4284 21.5668 81.601 21.2983 81.8269 21.0256C82.057 20.7486 82.3553 20.5185 82.7218 20.3352C83.0925 20.1477 83.5527 20.054 84.1025 20.054C84.8184 20.054 85.4789 20.2415 86.084 20.6165C86.6891 20.9872 87.1728 21.5476 87.535 22.2976C87.8972 23.0433 88.0783 23.9787 88.0783 25.1037C88.0783 26.1989 87.9015 27.1236 87.5478 27.8778C87.1983 28.6278 86.7211 29.1967 86.1159 29.5845C85.5151 29.968 84.8418 30.1598 84.0961 30.1598C83.5676 30.1598 83.1181 30.0724 82.7473 29.8977C82.3809 29.723 82.0804 29.5036 81.8461 29.2393C81.6117 28.9709 81.4327 28.7003 81.3091 28.4276H81.1877V30H78.503ZM81.1685 25.0909C81.1685 25.6747 81.2495 26.1839 81.4114 26.6186C81.5733 27.0533 81.8077 27.392 82.1145 27.6349C82.4213 27.8736 82.7942 27.9929 83.2331 27.9929C83.6763 27.9929 84.0513 27.8714 84.3581 27.6286C84.665 27.3814 84.8972 27.0405 85.0549 26.6058C85.2168 26.1669 85.2978 25.6619 85.2978 25.0909C85.2978 24.5241 85.2189 24.0256 85.0613 23.5952C84.9036 23.1648 84.6713 22.8281 84.3645 22.5852C84.0577 22.3423 83.6806 22.2209 83.2331 22.2209C82.79 22.2209 82.415 22.3381 82.1081 22.5724C81.8056 22.8068 81.5733 23.1392 81.4114 23.5696C81.2495 24 81.1685 24.5071 81.1685 25.0909ZM89.9464 30V16.9091H92.6694V21.831H92.7525C92.8718 21.5668 93.0444 21.2983 93.2702 21.0256C93.5004 20.7486 93.7987 20.5185 94.1651 20.3352C94.5359 20.1477 94.9961 20.054 95.5458 20.054C96.2617 20.054 96.9222 20.2415 97.5273 20.6165C98.1325 20.9872 98.6161 21.5476 98.9783 22.2976C99.3406 23.0433 99.5217 23.9787 99.5217 25.1037C99.5217 26.1989 99.3448 27.1236 98.9911 27.8778C98.6417 28.6278 98.1644 29.1967 97.5593 29.5845C96.9585 29.968 96.2852 30.1598 95.5394 30.1598C95.011 30.1598 94.5614 30.0724 94.1907 29.8977C93.8242 29.723 93.5238 29.5036 93.2894 29.2393C93.055 28.9709 92.8761 28.7003 92.7525 28.4276H92.631V30H89.9464ZM92.6119 25.0909C92.6119 25.6747 92.6928 26.1839 92.8548 26.6186C93.0167 27.0533 93.2511 27.392 93.5579 27.6349C93.8647 27.8736 94.2376 27.9929 94.6765 27.9929C95.1197 27.9929 95.4947 27.8714 95.8015 27.6286C96.1083 27.3814 96.3406 27.0405 96.4982 26.6058C96.6602 26.1669 96.7411 25.6619 96.7411 25.0909C96.7411 24.5241 96.6623 24.0256 96.5046 23.5952C96.3469 23.1648 96.1147 22.8281 95.8079 22.5852C95.5011 22.3423 95.1239 22.2209 94.6765 22.2209C94.2333 22.2209 93.8583 22.3381 93.5515 22.5724C93.2489 22.8068 93.0167 23.1392 92.8548 23.5696C92.6928 24 92.6119 24.5071 92.6119 25.0909ZM101.39 30V16.9091H104.113V21.831H104.196C104.315 21.5668 104.488 21.2983 104.714 21.0256C104.944 20.7486 105.242 20.5185 105.608 20.3352C105.979 20.1477 106.439 20.054 106.989 20.054C107.705 20.054 108.366 20.2415 108.971 20.6165C109.576 20.9872 110.059 21.5476 110.422 22.2976C110.784 23.0433 110.965 23.9787 110.965 25.1037C110.965 26.1989 110.788 27.1236 110.434 27.8778C110.085 28.6278 109.608 29.1967 109.003 29.5845C108.402 29.968 107.729 30.1598 106.983 30.1598C106.454 30.1598 106.005 30.0724 105.634 29.8977C105.268 29.723 104.967 29.5036 104.733 29.2393C104.498 28.9709 104.319 28.7003 104.196 28.4276H104.074V30H101.39ZM104.055 25.0909C104.055 25.6747 104.136 26.1839 104.298 26.6186C104.46 27.0533 104.694 27.392 105.001 27.6349C105.308 27.8736 105.681 27.9929 106.12 27.9929C106.563 27.9929 106.938 27.8714 107.245 27.6286C107.552 27.3814 107.784 27.0405 107.942 26.6058C108.104 26.1669 108.184 25.6619 108.184 25.0909C108.184 24.5241 108.106 24.0256 107.948 23.5952C107.79 23.1648 107.558 22.8281 107.251 22.5852C106.944 22.3423 106.567 22.2209 106.12 22.2209C105.677 22.2209 105.302 22.3381 104.995 22.5724C104.692 22.8068 104.46 23.1392 104.298 23.5696C104.136 24 104.055 24.5071 104.055 25.0909ZM115.505 16.9091V30H112.782V16.9091H115.505ZM122.161 30.1918C121.151 30.1918 120.281 29.9872 119.553 29.5781C118.828 29.1648 118.27 28.581 117.878 27.8267C117.486 27.0682 117.29 26.1712 117.29 25.1357C117.29 24.1257 117.486 23.2393 117.878 22.4766C118.27 21.7138 118.822 21.1193 119.534 20.6932C120.249 20.267 121.089 20.054 122.052 20.054C122.7 20.054 123.303 20.1584 123.861 20.3672C124.423 20.5717 124.914 20.8807 125.331 21.294C125.753 21.7074 126.081 22.2273 126.316 22.8537C126.55 23.4759 126.667 24.2045 126.667 25.0398V25.7876H118.377V24.1001H124.104C124.104 23.7081 124.019 23.3608 123.848 23.0582C123.678 22.7557 123.441 22.5192 123.139 22.3487C122.84 22.174 122.493 22.0866 122.097 22.0866C121.683 22.0866 121.317 22.1825 120.997 22.3743C120.682 22.5618 120.435 22.8153 120.256 23.1349C120.077 23.4503 119.985 23.8018 119.981 24.1896V25.794C119.981 26.2798 120.07 26.6996 120.249 27.0533C120.433 27.407 120.691 27.6797 121.023 27.8714C121.355 28.0632 121.749 28.1591 122.205 28.1591C122.508 28.1591 122.785 28.1165 123.036 28.0312C123.288 27.946 123.503 27.8182 123.682 27.6477C123.861 27.4773 123.997 27.2685 124.091 27.0213L126.61 27.1875C126.482 27.7926 126.22 28.321 125.823 28.7727C125.431 29.2202 124.924 29.5696 124.302 29.821C123.684 30.0682 122.97 30.1918 122.161 30.1918Z" fill="white"/>
<path fill-rule="evenodd" clip-rule="evenodd" d="M41.7442 21.7805C41.5727 20.9401 41.315 20.1125 40.9816 19.3219C40.6541 18.5457 40.2477 17.7985 39.7757 17.1C39.3074 16.4073 38.7703 15.7564 38.1786 15.1653C37.5876 14.5732 36.9362 14.0356 36.244 13.5683C35.5455 13.0947 34.7973 12.6899 34.022 12.3613C33.2315 12.0285 32.4044 11.7702 31.5635 11.5998C30.7026 11.4231 29.8157 11.3331 28.9299 11.3331C28.043 11.3331 27.1572 11.4231 26.2952 11.5998C25.4549 11.7702 24.6272 12.029 23.8372 12.3613C23.062 12.6899 22.3137 13.0953 21.6142 13.5683C20.9215 14.0356 20.2706 14.5727 19.6795 15.1653C19.0879 15.7564 18.5514 16.4078 18.0836 17.1C17.611 17.7985 17.2052 18.5457 16.8776 19.3219C16.5426 20.1125 16.286 20.9401 16.114 21.7805C15.9378 22.6403 15.8484 23.5272 15.8484 24.4136C15.8484 25.3015 15.9378 26.1884 16.114 27.0488C16.286 27.8891 16.5432 28.7168 16.8771 29.5068C17.2046 30.282 17.611 31.0313 18.083 31.7298C18.5508 32.4225 19.0874 33.0723 19.679 33.6645C20.2701 34.2555 20.9215 34.7921 21.6136 35.2604C22.3132 35.733 23.0614 36.1388 23.8367 36.4664C24.6262 36.8014 25.4543 37.0564 26.2946 37.2289C27.1566 37.4067 28.0425 37.4956 28.9294 37.4956C29.8152 37.4956 30.7021 37.4067 31.563 37.2289C32.4044 37.0564 33.2309 36.8008 34.0215 36.4664C34.7967 36.1388 35.545 35.7324 36.2435 35.2604C36.9362 34.7921 37.587 34.2561 38.1781 33.6645C38.7692 33.0723 39.3068 32.422 39.7751 31.7298C40.2477 31.0313 40.6536 30.282 40.9811 29.5068C41.315 28.7173 41.5722 27.8891 41.7436 27.0488C41.9204 26.1879 42.0093 25.301 42.0093 24.4136C42.0098 23.5272 41.9209 22.6403 41.7442 21.7805ZM40.0963 24.303C39.9349 24.2681 36.1546 23.4542 32.316 23.9368C32.2377 23.7458 32.1578 23.5532 32.0752 23.36C31.8429 22.8134 31.5926 22.2715 31.3323 21.7397C35.7445 19.9395 37.5357 17.3492 37.5563 17.3185C39.1232 19.2203 40.0709 21.6513 40.0963 24.303ZM36.3075 16.03C36.2795 16.0734 34.6888 18.4949 30.4724 20.0755C28.5626 16.5666 26.4645 13.7795 26.2968 13.5583C27.1413 13.3535 28.0218 13.2429 28.9294 13.2429C31.7583 13.2429 34.339 14.297 36.3075 16.03ZM26.2534 13.5673C26.2534 13.5683 26.2512 13.5694 26.2512 13.5694C26.2512 13.5694 26.2391 13.5726 26.2184 13.5768C26.2295 13.5736 26.2422 13.5715 26.2534 13.5673ZM24.1626 14.3102C24.3113 14.5097 26.3777 17.3106 28.3113 20.747C22.9471 22.172 18.2921 22.1165 17.9968 22.1112C18.7228 18.651 21.0474 15.7818 24.1626 14.3102ZM17.7581 24.4136C17.7581 24.2945 17.7634 24.1781 17.7677 24.0606C17.9645 24.0649 23.4848 24.1903 29.2363 22.4689C29.5564 23.0954 29.8628 23.732 30.1427 24.3681C29.9951 24.4093 29.848 24.4538 29.7025 24.5014C23.6737 26.4498 20.6156 31.8748 20.6156 31.8748C20.6156 31.8748 20.6199 31.878 20.6199 31.8801C18.8413 29.9005 17.7581 27.2838 17.7581 24.4136ZM28.9294 35.5859C26.2258 35.5859 23.7462 34.6249 21.8137 33.0258C21.9602 33.1448 22.064 33.221 22.064 33.221C22.064 33.221 24.2055 28.5506 30.8301 26.2424C30.855 26.2329 30.8799 26.226 30.9047 26.2186C32.4769 30.3032 33.1256 33.7243 33.2913 34.7006C31.9504 35.271 30.4766 35.5859 28.9294 35.5859ZM35.1719 33.6803C35.0582 33.0056 34.4628 29.7269 32.9976 25.7005C36.6033 25.1237 39.7291 26.1127 39.9593 26.1884C39.4619 29.301 37.6802 31.9859 35.1719 33.6803Z" fill="white"/>
</g>
<defs>
<clipPath id="clip0_4_2">
<rect width="146" height="48" fill="white"/>
</clipPath>
</defs>
</svg>
