<svg width="146" height="48" viewBox="0 0 146 48" fill="none" xmlns="http://www.w3.org/2000/svg">
<g clip-path="url(#clip0_4_10)">
<path d="M122 0H24C10.7452 0 0 10.7452 0 24C0 37.2548 10.7452 48 24 48H122C135.255 48 146 37.2548 146 24C146 10.7452 135.255 0 122 0Z" fill="#24292F"/>
<path d="M63.8182 21.1406C63.7287 20.8295 63.603 20.5547 63.4411 20.3161C63.2791 20.0732 63.081 19.8686 62.8466 19.7024C62.6165 19.532 62.3523 19.402 62.054 19.3125C61.7599 19.223 61.4339 19.1783 61.076 19.1783C60.407 19.1783 59.8189 19.3445 59.3118 19.6768C58.8089 20.0092 58.4169 20.4929 58.1357 21.1278C57.8544 21.7585 57.7138 22.5298 57.7138 23.4418C57.7138 24.3537 57.8523 25.1293 58.1293 25.7685C58.4063 26.4077 58.7983 26.8956 59.3054 27.2322C59.8125 27.5646 60.4112 27.7308 61.1016 27.7308C61.728 27.7308 62.2628 27.62 62.706 27.3984C63.1534 27.1726 63.4943 26.8551 63.7287 26.446C63.9673 26.0369 64.0866 25.5533 64.0866 24.995L64.6491 25.0781H61.2741V22.9943H66.7521V24.6435C66.7521 25.794 66.5092 26.7827 66.0234 27.6094C65.5376 28.4318 64.8686 29.0668 64.0163 29.5142C63.1641 29.9574 62.1882 30.179 61.0888 30.179C59.8615 30.179 58.7834 29.9084 57.8544 29.3672C56.9254 28.8217 56.201 28.0483 55.6811 27.0469C55.1655 26.0412 54.9077 24.848 54.9077 23.4673C54.9077 22.4062 55.0611 21.4602 55.3679 20.6293C55.679 19.794 56.1136 19.0866 56.6719 18.5071C57.2301 17.9276 57.88 17.4865 58.6214 17.1839C59.3629 16.8814 60.1662 16.7301 61.0312 16.7301C61.7727 16.7301 62.4631 16.8388 63.1023 17.0561C63.7415 17.2692 64.3082 17.5717 64.8026 17.9638C65.3011 18.3558 65.7081 18.8224 66.0234 19.3636C66.3388 19.9006 66.5412 20.4929 66.6307 21.1406H63.8182ZM69.3952 30V20.1818H72.1183V30H69.3952ZM70.7631 18.9162C70.3583 18.9162 70.011 18.782 69.7212 18.5135C69.4357 18.2408 69.293 17.9148 69.293 17.5355C69.293 17.1605 69.4357 16.8388 69.7212 16.5703C70.011 16.2976 70.3583 16.1612 70.7631 16.1612C71.168 16.1612 71.5131 16.2976 71.7987 16.5703C72.0884 16.8388 72.2333 17.1605 72.2333 17.5355C72.2333 17.9148 72.0884 18.2408 71.7987 18.5135C71.5131 18.782 71.168 18.9162 70.7631 18.9162ZM79.5218 20.1818V22.2273H73.6092V20.1818H79.5218ZM74.9515 17.8295H77.6745V26.983C77.6745 27.2344 77.7129 27.4304 77.7896 27.571C77.8663 27.7074 77.9728 27.8033 78.1092 27.8587C78.2498 27.9141 78.4118 27.9418 78.595 27.9418C78.7228 27.9418 78.8507 27.9311 78.9785 27.9098C79.1064 27.8842 79.2044 27.8651 79.2726 27.8523L79.7008 29.8786C79.5645 29.9212 79.3727 29.9702 79.1255 30.0256C78.8784 30.0852 78.5779 30.1214 78.2243 30.1342C77.568 30.1598 76.9927 30.0724 76.4984 29.8722C76.0083 29.6719 75.627 29.3608 75.3542 28.9389C75.0815 28.517 74.9473 27.9844 74.9515 27.3409V17.8295ZM84.2296 24.3239V30H81.5066V16.9091H84.1529V21.9141H84.2679C84.4895 21.3345 84.8475 20.8807 85.3418 20.5526C85.8361 20.2202 86.4561 20.054 87.2019 20.054C87.8837 20.054 88.4782 20.2031 88.9853 20.5014C89.4966 20.7955 89.8929 21.2195 90.1742 21.7734C90.4597 22.3232 90.6003 22.9815 90.5961 23.7486V30H87.873V24.2344C87.8773 23.6293 87.7239 23.1584 87.4128 22.8217C87.106 22.4851 86.6756 22.3168 86.1216 22.3168C85.7509 22.3168 85.4228 22.3956 85.1373 22.5533C84.856 22.7109 84.6344 22.9411 84.4725 23.2436C84.3148 23.5419 84.2338 23.902 84.2296 24.3239ZM99.0352 25.8196V20.1818H101.758V30H99.1438V28.2166H99.0415C98.82 28.7919 98.4513 29.2543 97.9357 29.6037C97.4244 29.9531 96.8001 30.1278 96.0629 30.1278C95.4066 30.1278 94.8292 29.9787 94.3306 29.6804C93.832 29.3821 93.4421 28.9581 93.1609 28.4084C92.8839 27.8587 92.7433 27.2003 92.739 26.4332V20.1818H95.462V25.9474C95.4663 26.527 95.6218 26.9851 95.9286 27.3217C96.2354 27.6584 96.6467 27.8267 97.1623 27.8267C97.4904 27.8267 97.7972 27.7521 98.0827 27.603C98.3683 27.4496 98.5984 27.2237 98.7731 26.9254C98.9521 26.6271 99.0394 26.2585 99.0352 25.8196ZM103.987 30V16.9091H106.71V21.831H106.794C106.913 21.5668 107.085 21.2983 107.311 21.0256C107.541 20.7486 107.84 20.5185 108.206 20.3352C108.577 20.1477 109.037 20.054 109.587 20.054C110.303 20.054 110.963 20.2415 111.568 20.6165C112.173 20.9872 112.657 21.5476 113.019 22.2976C113.382 23.0433 113.563 23.9787 113.563 25.1037C113.563 26.1989 113.386 27.1236 113.032 27.8778C112.683 28.6278 112.205 29.1967 111.6 29.5845C110.999 29.968 110.326 30.1598 109.58 30.1598C109.052 30.1598 108.602 30.0724 108.232 29.8977C107.865 29.723 107.565 29.5036 107.33 29.2393C107.096 28.9709 106.917 28.7003 106.794 28.4276H106.672V30H103.987ZM106.653 25.0909C106.653 25.6747 106.734 26.1839 106.896 26.6186C107.058 27.0533 107.292 27.392 107.599 27.6349C107.906 27.8736 108.279 27.9929 108.718 27.9929C109.161 27.9929 109.536 27.8714 109.843 27.6286C110.149 27.3814 110.382 27.0405 110.539 26.6058C110.701 26.1669 110.782 25.6619 110.782 25.0909C110.782 24.5241 110.703 24.0256 110.546 23.5952C110.388 23.1648 110.156 22.8281 109.849 22.5852C109.542 22.3423 109.165 22.2209 108.718 22.2209C108.274 22.2209 107.899 22.3381 107.593 22.5724C107.29 22.8068 107.058 23.1392 106.896 23.5696C106.734 24 106.653 24.5071 106.653 25.0909Z" fill="white"/>
<g clip-path="url(#clip1_4_10)">
<g clip-path="url(#clip2_4_10)">
<path fill-rule="evenodd" clip-rule="evenodd" d="M31.3515 29.7524C34.2745 29.4072 37.3833 28.3444 37.3833 23.2958C37.3833 21.8609 36.878 20.6914 36.055 19.7879C36.1878 19.4428 36.6125 18.1406 35.8948 16.3339C35.8948 16.3339 34.832 15.9884 32.3347 17.6622C31.2719 17.3702 30.1029 17.1839 29.0135 17.1839C27.8971 17.1839 26.7277 17.3702 25.6914 17.6622C23.1671 15.9884 22.1043 16.3339 22.1043 16.3339C21.387 18.1406 21.8123 19.4428 21.945 19.7879C21.1211 20.6914 20.6163 21.8609 20.6163 23.2958C20.6163 28.3444 23.7251 29.4072 26.648 29.7524C26.2763 30.0718 25.9308 30.6824 25.798 31.5329C25.0538 31.8515 23.114 32.4629 21.945 30.4435C21.945 30.4435 21.2539 29.1949 19.9521 29.1152C19.9521 29.1152 18.6499 29.0887 19.8459 29.9116C19.8459 29.9116 20.7225 30.3108 21.3074 31.8249C21.3074 31.8249 22.1043 34.3496 25.771 33.5522V35.8106C25.771 36.1567 25.5056 36.5549 24.8414 36.4487C19.6331 34.7213 15.8867 29.7789 15.8867 23.9865C15.8867 16.7322 21.7588 10.8602 29.0135 10.8602C36.2408 10.8602 42.1398 16.7323 42.1133 23.9865C42.1133 29.7789 38.3664 34.6948 33.1585 36.4487C32.4939 36.5815 32.2285 36.1833 32.2285 35.8106V32.1709C32.2285 30.9479 31.8294 30.1515 31.3515 29.7524ZM44 24.0135C44 15.7225 37.2771 9 29.0135 9C20.7225 9 14 15.7225 14 24.0135C14 32.2771 20.7225 39 29.0135 39C37.2771 39 44 32.2771 44 24.0135Z" fill="white"/>
</g>
</g>
</g>
<defs>
<clipPath id="clip0_4_10">
<rect width="146" height="48" fill="white"/>
</clipPath>
<clipPath id="clip1_4_10">
<rect width="30" height="30" fill="white" transform="translate(14 9)"/>
</clipPath>
<clipPath id="clip2_4_10">
<rect width="30" height="30" fill="white" transform="translate(14 9)"/>
</clipPath>
</defs>
</svg>
