<svg width="146" height="48" viewBox="0 0 146 48" fill="none" xmlns="http://www.w3.org/2000/svg">
<g clip-path="url(#clip0_3_2)">
<path d="M122 0H24C10.7452 0 0 10.7452 0 24C0 37.2548 10.7452 48 24 48H122C135.255 48 146 37.2548 146 24C146 10.7452 135.255 0 122 0Z" fill="#6FDA44"/>
<path d="M61.2237 17.9091H63.9915V26.4105C63.9915 27.3651 63.7635 28.2003 63.3075 28.9162C62.8558 29.6321 62.223 30.1903 61.4091 30.5909C60.5952 30.9872 59.647 31.1854 58.5646 31.1854C57.478 31.1854 56.5277 30.9872 55.7138 30.5909C54.8999 30.1903 54.267 29.6321 53.8153 28.9162C53.3636 28.2003 53.1378 27.3651 53.1378 26.4105V17.9091H55.9055V26.174C55.9055 26.6726 56.0142 27.1158 56.2315 27.5036C56.4531 27.8913 56.7642 28.196 57.1648 28.4176C57.5653 28.6392 58.032 28.75 58.5646 28.75C59.1016 28.75 59.5682 28.6392 59.9645 28.4176C60.3651 28.196 60.674 27.8913 60.8913 27.5036C61.1129 27.1158 61.2237 26.6726 61.2237 26.174V17.9091ZM66.2175 34.6818V21.1818H68.9022V22.831H69.0236C69.1429 22.5668 69.3155 22.2983 69.5414 22.0256C69.7715 21.7486 70.0698 21.5185 70.4363 21.3352C70.807 21.1477 71.2672 21.054 71.8169 21.054C72.5328 21.054 73.1934 21.2415 73.7985 21.6165C74.4036 21.9872 74.8873 22.5476 75.2495 23.2976C75.6117 24.0433 75.7928 24.9787 75.7928 26.1037C75.7928 27.1989 75.6159 28.1236 75.2623 28.8778C74.9128 29.6278 74.4355 30.1967 73.8304 30.5845C73.2296 30.968 72.5563 31.1598 71.8105 31.1598C71.2821 31.1598 70.8326 31.0724 70.4618 30.8977C70.0953 30.723 69.7949 30.5036 69.5605 30.2393C69.3262 29.9709 69.1472 29.7003 69.0236 29.4276H68.9405V34.6818H66.2175ZM68.883 26.0909C68.883 26.6747 68.964 27.1839 69.1259 27.6186C69.2878 28.0533 69.5222 28.392 69.829 28.6349C70.1358 28.8736 70.5087 28.9929 70.9476 28.9929C71.3908 28.9929 71.7658 28.8714 72.0726 28.6286C72.3794 28.3814 72.6117 28.0405 72.7694 27.6058C72.9313 27.1669 73.0123 26.6619 73.0123 26.0909C73.0123 25.5241 72.9334 25.0256 72.7757 24.5952C72.6181 24.1648 72.3858 23.8281 72.079 23.5852C71.7722 23.3423 71.3951 23.2209 70.9476 23.2209C70.5044 23.2209 70.1294 23.3381 69.8226 23.5724C69.5201 23.8068 69.2878 24.1392 69.1259 24.5696C68.964 25 68.883 25.5071 68.883 26.0909ZM79.2988 31L76.627 21.1818H79.3819L80.9032 27.7784H80.9927L82.5779 21.1818H85.2818L86.8926 27.7401H86.9757L88.4714 21.1818H91.22L88.5545 31H85.6717L83.9842 24.8253H83.8627L82.1752 31H79.2988ZM96.8626 31.1918C95.8697 31.1918 95.011 30.9808 94.2866 30.5589C93.5664 30.1328 93.0103 29.5405 92.6183 28.782C92.2262 28.0192 92.0302 27.1349 92.0302 26.1293C92.0302 25.1151 92.2262 24.2287 92.6183 23.4702C93.0103 22.7074 93.5664 22.1151 94.2866 21.6932C95.011 21.267 95.8697 21.054 96.8626 21.054C97.8555 21.054 98.712 21.267 99.4322 21.6932C100.157 22.1151 100.715 22.7074 101.107 23.4702C101.499 24.2287 101.695 25.1151 101.695 26.1293C101.695 27.1349 101.499 28.0192 101.107 28.782C100.715 29.5405 100.157 30.1328 99.4322 30.5589C98.712 30.9808 97.8555 31.1918 96.8626 31.1918ZM96.8754 29.0824C97.3271 29.0824 97.7042 28.9545 98.0067 28.6989C98.3093 28.4389 98.5373 28.0852 98.6907 27.6378C98.8484 27.1903 98.9272 26.6811 98.9272 26.1101C98.9272 25.5391 98.8484 25.0298 98.6907 24.5824C98.5373 24.1349 98.3093 23.7812 98.0067 23.5213C97.7042 23.2614 97.3271 23.1314 96.8754 23.1314C96.4194 23.1314 96.0359 23.2614 95.7248 23.5213C95.418 23.7812 95.1857 24.1349 95.0281 24.5824C94.8746 25.0298 94.7979 25.5391 94.7979 26.1101C94.7979 26.6811 94.8746 27.1903 95.0281 27.6378C95.1857 28.0852 95.418 28.4389 95.7248 28.6989C96.0359 28.9545 96.4194 29.0824 96.8754 29.0824ZM103.466 31V21.1818H106.105V22.8949H106.208C106.387 22.2855 106.687 21.8253 107.109 21.5142C107.531 21.1989 108.017 21.0412 108.566 21.0412C108.703 21.0412 108.85 21.0497 109.007 21.0668C109.165 21.0838 109.304 21.1072 109.423 21.1371V23.5533C109.295 23.5149 109.118 23.4808 108.892 23.451C108.667 23.4212 108.46 23.4062 108.272 23.4062C107.872 23.4062 107.514 23.4936 107.199 23.6683C106.887 23.8388 106.64 24.0774 106.457 24.3842C106.278 24.6911 106.189 25.0447 106.189 25.4453V31H103.466ZM113.298 28.1747L113.305 24.9084H113.701L116.846 21.1818H119.971L115.746 26.1165H115.101L113.298 28.1747ZM110.831 31V17.9091H113.554V31H110.831ZM116.967 31L114.078 26.7237L115.893 24.7997L120.157 31H116.967Z" fill="white"/>
<path d="M37.6147 26.2619C36.3293 26.2619 35.1249 25.7176 34.0306 24.8317L34.297 23.581L34.3085 23.5347C34.5459 22.203 35.2987 19.968 37.6147 19.968C39.3518 19.968 40.7646 21.3808 40.7646 23.1178C40.7588 24.8491 39.346 26.2619 37.6147 26.2619ZM37.6147 16.7776C34.6559 16.7776 32.363 18.6999 31.4308 21.8613C30.0064 19.7248 28.9295 17.1597 28.2983 15H25.1138V23.2857C25.1138 24.9186 23.782 26.2503 22.1492 26.2503C20.5164 26.2503 19.1846 24.9186 19.1846 23.2857V15H16V23.2857C15.9885 26.6788 18.7504 29.4638 22.1434 29.4638C25.5364 29.4638 28.2983 26.6788 28.2983 23.2857V21.8961C28.9179 23.1873 29.6764 24.4901 30.597 25.6481L28.6458 34.8197H31.9056L33.3184 28.1668C34.5575 28.9601 35.9819 29.458 37.6147 29.458C41.1062 29.458 43.9492 26.5977 43.9492 23.1062C43.9492 19.6206 41.1062 16.7776 37.6147 16.7776Z" fill="white"/>
</g>
<defs>
<clipPath id="clip0_3_2">
<rect width="146" height="48" fill="white"/>
</clipPath>
</defs>
</svg>
