<svg width="800" height="800" viewBox="0 0 800 800" fill="none" xmlns="http://www.w3.org/2000/svg">
<path d="M332.764 435.327C357.667 365.648 420.801 315.405 494.776 306.981C470.606 238.206 405.128 189.012 328.126 189.012C230.567 189.012 151.394 268.066 151.394 365.648C151.394 412.181 169.411 454.491 198.854 486.083C232.717 454.589 278.126 435.228 328.029 435.228C329.59 435.23 331.103 435.327 332.764 435.327Z" fill="white"/>
<path d="M353.834 37.5735H302.369V136.645H353.834V37.5735Z" fill="white"/>
<path d="M184.35 185.522L114.306 115.478L77.9048 151.856L147.95 221.924L184.35 185.522Z" fill="white"/>
<path d="M99.0719 339.942H0V391.408H99.0719V339.942Z" fill="white"/>
<path d="M77.9048 579.444L114.258 615.894L141.724 588.403C146.045 566.358 154.175 545.678 165.503 527.05L147.9 509.447L77.9048 579.444Z" fill="white"/>
<path d="M578.32 151.856L541.895 115.455L471.875 185.522L508.252 221.924L578.32 151.856Z" fill="white"/>
<path d="M660.278 475.538C645.85 408.619 586.402 358.472 515.186 358.472C443.213 358.472 383.252 409.644 369.63 477.613C361.574 476.22 353.32 475.342 344.874 475.342C265.577 475.342 201.319 539.6 201.319 618.872C201.319 698.169 265.577 762.427 344.874 762.427C412.622 762.427 589.795 762.427 656.445 762.427C735.742 762.427 800 698.169 800 618.872C800 540.869 737.794 477.564 660.278 475.538Z" fill="white"/>
</svg>
